<svg xmlns="http://www.w3.org/2000/svg" xmlns:xlink="http://www.w3.org/1999/xlink" fill="none" version="1.1" width="99" height="126" viewBox="0 0 99 126"><defs><clipPath id="master_svg0_2_2642"><rect x="0" y="0" width="99" height="126" rx="0"/></clipPath></defs><g clip-path="url(#master_svg0_2_2642)"><g><g><g><path d="M88.99674819793701,67.88536613769531C86.015948197937,67.88536613769531,83.52844819793701,65.39596613769531,83.52844819793701,62.41306613769531C83.52844819793701,61.80396613769531,83.636548197937,61.21746613769531,83.82704819793702,60.66656613769531C83.800048197937,59.89066613769531,83.754648197937,59.114866137695316,83.66124819793701,58.34336613769531C83.66924819793701,58.53856613769531,83.38884819793701,56.96086613769531,83.34944819793702,56.79286613769531C83.02914819793702,55.432666137695314,82.63904819793702,54.086566137695314,82.13344819793701,52.78236613769531C82.06604819793702,52.64176613769531,81.70474819793702,51.790966137695314,81.70384819793702,51.789066137695315C81.545048197937,51.45426613769531,81.380648197937,51.12286613769531,81.21084819793701,50.793966137695314C80.86494819793701,50.13806613769531,80.51354819793701,49.48506613769531,80.127248197937,48.85206613769532C79.73914819793701,48.21796613769531,79.34664819793701,47.58626613769531,78.922448197937,46.97556613769531C78.89054819793702,46.929466137695314,78.774348197937,46.77076613769531,78.635748197937,46.580166137695315C76.92904819793702,50.033466137695314,71.43434819793701,51.564766137695315,68.94294819793701,47.21146613769531C68.47214819793702,46.38886613769532,68.03584819793701,45.542466137695314,67.60624819793702,44.690166137695314C66.50454819793701,43.979166137695316,65.63984819793701,42.87706613769531,65.212848197937,41.537966137695314C64.85864819793701,40.42576613769531,64.53144819793701,39.43386613769531,64.20064819793701,38.50626613769531C64.18644819793701,38.48536613769531,64.17374819793702,38.46356613769531,64.15914819793701,38.44266613769531C62.45294819793701,35.99012613769531,60.395448197937014,33.57028613769531,59.042748197937016,30.31064613769531C58.949848197937015,30.086216137695313,58.88804819793701,29.857696137695314,58.839848197937016,29.628526137695314C57.63674819793701,29.147576137695314,56.630448197937014,28.25480613769531,56.01554819793701,27.121881337695314C55.951148197937016,27.10831213769531,55.888148197937014,27.092158437695314,55.82334819793701,27.079666137695312C58.89364819793701,31.291726137695314,60.71114819793701,36.47818613769531,60.71114819793701,42.091766137695316C60.71114819793701,55.52396613769531,50.331448197937014,66.51986613769532,37.16334819793701,67.50996613769532C39.62284819793701,85.1719661376953,53.17404819793701,99.2746661376953,70.54854819793701,102.55516613769531C70.72584819793701,102.43866613769531,70.906248197937,102.32536613769531,71.08164819793701,102.20586613769531C66.14624819793701,99.73946613769532,62.749048197937014,94.6496661376953,62.749048197937014,88.75336613769531C62.749048197937014,80.4450661376953,69.47914819793701,73.7095661376953,77.78154819793701,73.7095661376953C81.753848197937,73.7095661376953,85.35564819793701,75.26316613769532,88.04264819793701,77.78116613769532C88.82194819793702,74.6042661376953,89.24404819793702,71.28886613769532,89.246148197937,67.87246613769531C89.16264819793702,67.87626613769531,89.08064819793701,67.88536613769531,88.99674819793701,67.88536613769531Z" fill="#FEFEFE" fill-opacity="1"/></g><g><path d="M37.16315190887451,67.50973352050781C36.52505190887452,67.55776352050782,35.88325190887451,67.58943352050781,35.23245190887451,67.58943352050781C25.71835190887451,67.58943352050781,18.43925190887451,66.9189335205078,14.43966190887451,60.87373352050781C13.242411908874512,62.34416352050781,11.564141908874511,63.338593520507814,9.89448190887451,64.25505352050781C9.339221908874512,65.64795352050781,10.649041908874512,66.42462352050781,9.07860190887451,66.42462352050781C9.019841908874511,66.42462352050781,7.381611908874512,66.56484352050781,7.322851908874512,66.56204352050781C7.298961908874512,66.93616352050782,6.187151908874512,67.41582352050781,6.187151908874512,67.84444352050781C6.187151908874512,90.79883352050781,24.781051908874513,109.40673352050781,47.71705190887451,109.40673352050781C48.25115190887451,109.40673352050781,48.78295190887451,109.39683352050781,49.31215190887451,109.37663352050781C49.51015190887451,109.36863352050781,49.70645190887451,109.3529335205078,49.90495190887451,109.34323352050781C50.23265190887451,109.32583352050781,50.56235190887451,109.3109335205078,50.88975190887451,109.28593352050781C51.13355190887451,109.26673352050781,51.37525190887451,109.24113352050782,51.61825190887451,109.21743352050781C51.89435190887451,109.19143352050781,52.173551908874515,109.16943352050781,52.44925190887451,109.13773352050782C52.71865190887451,109.10763352050782,52.98465190887451,109.06843352050781,53.25235190887451,109.03203352050781C53.49755190887451,109.00033352050781,53.744151908874514,108.97043352050781,53.98845190887451,108.93333352050782C54.28045190887451,108.88873352050781,54.56975190887451,108.83713352050782,54.85855190887451,108.78603352050781C55.075051908874514,108.74923352050781,55.29205190887451,108.71433352050781,55.50555190887451,108.67363352050782C55.815251908874515,108.61523352050781,56.12035190887451,108.54823352050781,56.42725190887451,108.48253352050781C56.62015190887451,108.44163352050782,56.81275190887451,108.40283352050781,57.00365190887451,108.36003352050781C57.32605190887451,108.28503352050781,57.64495190887451,108.20363352050782,57.96415190887451,108.12283352050781C58.13525190887451,108.08003352050781,58.30845190887451,108.03803352050781,58.478751908874514,107.99233352050781C58.81215190887451,107.90293352050782,59.142051908874514,107.80713352050782,59.47285190887451,107.70953352050782C59.624951908874515,107.66343352050782,59.77845190887451,107.62213352050782,59.929751908874515,107.5738335205078C60.27195190887451,107.46833352050781,60.61155190887451,107.35693352050781,60.949851908874514,107.24233352050781C61.08615190887451,107.19673352050782,61.222351908874515,107.15383352050782,61.35765190887451,107.10583352050782C61.70695190887451,106.98453352050781,62.053251908874515,106.85513352050782,62.39895190887451,106.72463352050781C62.52035190887451,106.67853352050781,62.64195190887451,106.63503352050782,62.76135190887451,106.58823352050781C63.11735190887451,106.44933352050782,63.47005190887451,106.3041335205078,63.82105190887451,106.15573352050781C63.926551908874515,106.11093352050781,64.03325190887452,106.06813352050781,64.1389519088745,106.0224335205078C64.49705190887451,105.86783352050782,64.85115190887451,105.70643352050782,65.2032519088745,105.54193352050781C65.30065190887451,105.49733352050782,65.39775190887451,105.45363352050782,65.4933519088745,105.4086335205078C65.85185190887452,105.2373335205078,66.20695190887452,105.06223352050782,66.55885190887452,104.88093352050781C66.6458519088745,104.83743352050782,66.73385190887451,104.7930335205078,66.81995190887451,104.74733352050782C67.17715190887452,104.56233352050782,67.53125190887451,104.37083352050782,67.88095190887452,104.17593352050781C67.96075190887451,104.1311335205078,68.04235190887451,104.08723352050782,68.12215190887451,104.04263352050782C68.47405190887451,103.84343352050782,68.82205190887451,103.63793352050781,69.16795190887451,103.42853352050781C69.24475190887452,103.38183352050781,69.3196519088745,103.33723352050782,69.39695190887451,103.28923352050782C69.74215190887452,103.0781335205078,70.08215190887452,102.8614335205078,70.42095190887451,102.63873352050781C70.46335190887451,102.61073352050781,70.50615190887451,102.58313352050781,70.54875190887451,102.5549335205078C53.17365190887451,99.27443352050781,39.62265190887451,85.17153352050781,37.16315190887451,67.50973352050781Z" fill="#8000FF" fill-opacity="1"/></g><g><path d="M47.71650259246826,26.282302856445312C24.780702592468263,26.282302856445312,6.186602592468262,44.89020285644531,6.186602592468262,67.84440285644531C6.186602592468262,67.84440285644531,89.24630259246827,67.84440285644531,89.24630259246827,67.84440285644531C89.24630259246827,44.89020285644531,70.65170259246827,26.282302856445312,47.71650259246826,26.282302856445312Z" fill="#FFA500" fill-opacity="1"/></g><g><path d="M47.71655298309326,26.282322836914062C48.39405298309326,26.282322836914062,49.06705298309326,26.300412836914063,49.73675298309326,26.334012836914063C50.24535298309326,26.357922836914064,50.75025298309326,26.39992283691406,51.25515298309326,26.443862836914064C51.39305298309326,26.45571283691406,51.53465298309326,26.461742836914063,51.67245298309326,26.475312836914064C52.30045298309326,26.534112836914062,52.922652983093265,26.611032836914063,53.54095298309326,26.69763283691406C53.54895298309326,26.698432836914062,53.55645298309326,26.699532836914063,53.56485298309326,26.70063283691406C54.19675298309326,26.790232836914065,54.82255298309326,26.894832836914063,55.44545298309326,27.012232836914063C55.44845298309326,27.01333283691406,55.45165298309326,27.01333283691406,55.45555298309326,27.01333283691406C55.57735298309326,27.037232836914065,55.700252983093264,27.055132836914062,55.82295298309326,27.079232836914063C51.18905298309326,20.72454283691406,43.693852983093265,16.593032836914062,35.23215298309326,16.593032836914062C21.160652983093264,16.593032836914062,9.753252983093262,28.00823283691406,9.753252983093262,42.09133283691406C9.753252983093262,44.48553283691406,10.089852983093262,46.798332836914064,10.70709598309326,48.995732836914065C17.57425298309326,35.518632836914065,31.56335298309326,26.282322836914062,47.71655298309326,26.282322836914062Z" fill="#008080" fill-opacity="1"/></g><g><path d="M88.04205073699951,77.78102111816406C85.56785073699952,87.87462111816406,79.41524073699951,96.51792111816405,71.08095073699951,102.20542111816405C73.10033073699951,103.21512111816406,75.37067073699951,103.79692111816406,77.78089073699951,103.79692111816406C86.08225073699951,103.79692111816406,92.81335073699951,97.06162111816406,92.81335073699951,88.75292111816407C92.81335073699951,84.42046111816406,90.97175073699951,80.52588111816407,88.04205073699951,77.78102111816406Z" fill="#008080" fill-opacity="1"/></g><g><path d="M36.76069927215576,61.72485988769531C36.76069927215576,63.68805988769531,36.899727272155765,65.61815988769531,37.16293827215576,67.50945988769531C50.33119927215576,66.51935988769532,60.710699272155765,55.52375988769531,60.710699272155765,42.091259887695315C60.710699272155765,36.47768988769531,58.89319927215576,31.291009887695314,55.822899272155766,27.07916748769531C55.70029927215576,27.055259787695313,55.57739927215576,27.037382987695313,55.455599272155766,27.013259887695312C44.19537927215576,34.44811988769531,36.76069927215576,47.21485988769531,36.76069927215576,61.72485988769531Z" fill="#FEFEFE" fill-opacity="1"/></g><g><path d="M35.23214936981201,67.58936906738282C35.88274936981201,67.58936906738282,36.524749369812014,67.55766906738282,37.16284936981201,67.50966906738282C36.89964936981201,65.61836906738282,36.760649369812015,63.68826906738281,36.760649369812015,61.72506906738281C36.760649369812015,47.215069067382814,44.195349369812014,34.448109067382816,55.45544936981201,27.013684067382812C55.45164936981201,27.013684067382812,55.448349369812014,27.013684067382812,55.445349369812014,27.012607067382813C54.82234936981201,26.895223067382812,54.195549369812014,26.790546067382813,53.56474936981201,26.700946067382812C53.556449369812015,26.699869067382814,53.54884936981201,26.69879206738281,53.54094936981201,26.69793106738281C52.92254936981201,26.609192067382814,52.29954936981201,26.535530067382812,51.67234936981201,26.47565306738281C51.53444936981201,26.46208406738281,51.39284936981201,26.45476106738281,51.25504936981201,26.444207067382813C50.750149369812014,26.400269067382812,50.24554936981201,26.358483967382814,49.73674936981201,26.334360867382813C49.067149369812014,26.301622467382813,48.393349369812015,26.282669067382812,47.71644936981201,26.282669067382812C31.563349369812013,26.282669067382812,17.57420936981201,35.51900906738281,10.707049369812012,48.99606906738281C13.715569369812012,59.721769067382816,23.552549369812013,67.58936906738282,35.23214936981201,67.58936906738282Z" fill="#D3D3D3" fill-opacity="1"/></g><g><path d="M88.04197017059326,77.78094480957031C85.35527017059326,75.2628748095703,81.75317017059326,73.70930480957031,77.78087017059326,73.70930480957031C69.47865017059326,73.70930480957031,62.74837017059326,80.44459480957032,62.74837017059326,88.75310480957032C62.74837017059326,94.64940480957031,66.14557017059326,99.73920480957031,71.08094017059327,102.20550480957031C79.41527017059326,96.51790480957031,85.56787017059327,87.87450480957031,88.04197017059326,77.78094480957031Z" fill="#D3D3D3" fill-opacity="1"/></g></g></g></g></svg>