<svg xmlns="http://www.w3.org/2000/svg" xmlns:xlink="http://www.w3.org/1999/xlink" fill="none" version="1.1" width="71" height="71" viewBox="0 0 71 71"><defs><clipPath id="master_svg0_2_2944"><rect x="0" y="0" width="71" height="71" rx="0"/></clipPath></defs><g clip-path="url(#master_svg0_2_2944)"><g><path d="M57.42124350585937,21.921348046875L43.132543505859374,7.632578046875C42.037943505859374,6.537998046875,40.52914350585937,5.916748046875,38.96124350585937,5.916748046875L17.750013505859375,5.916748046875C14.495843505859375,5.916748046875,11.862927505859375,8.579248046875,11.862927505859375,11.833418046875L11.833343505859375,59.166748046875C11.833343505859375,62.420948046875,14.466263505859375,65.08344804687499,17.720423505859376,65.08344804687499L53.250043505859374,65.08344804687499C56.504143505859375,65.08344804687499,59.166643505859376,62.420948046875,59.166643505859376,59.166748046875L59.166643505859376,26.122148046875C59.166643505859376,24.554248046875,58.545443505859375,23.045448046875,57.42124350585937,21.921348046875ZM43.78334350585938,44.375048046875L38.458343505859375,44.375048046875L38.458343505859375,53.250048046875C38.458343505859375,54.877148046875,37.12714350585938,56.208448046875,35.500043505859374,56.208448046875C33.872943505859375,56.208448046875,32.541643505859376,54.877148046875,32.541643505859376,53.250048046875L32.541643505859376,44.375048046875L27.246243505859375,44.375048046875C25.915043505859373,44.375048046875,25.264143505859373,42.777548046875,26.210843505859373,41.860548046875L34.49414350585937,33.606748046875C35.08584350585937,33.044648046875,36.00294350585938,33.044648046875,36.59454350585938,33.606748046875L44.848343505859376,41.860548046875C45.73584350585938,42.777548046875,45.085043505859375,44.375048046875,43.78334350585938,44.375048046875ZM41.416643505859376,26.625048046875C39.789643505859374,26.625048046875,38.458343505859375,25.293848046875,38.458343505859375,23.666748046875L38.458343505859375,10.354248046875L54.729143505859376,26.625048046875L41.416643505859376,26.625048046875Z" fill="#D8D8D8" fill-opacity="1"/></g></g></svg>