<svg xmlns="http://www.w3.org/2000/svg" xmlns:xlink="http://www.w3.org/1999/xlink" fill="none" version="1.1" width="50.82421875" height="15.64501953125" viewBox="0 0 50.82421875 15.64501953125"><g><g><path d="M20.3496015625,0.260009765625C20.3496015625,0.260009765625,17.7666015625,15.418009765625,17.7666015625,15.418009765625C17.7666015625,15.418009765625,21.8976015625,15.418009765625,21.8976015625,15.418009765625C21.8976015625,15.418009765625,24.4826015625,0.260009765625,24.4826015625,0.260009765625C24.4826015625,0.260009765625,20.3496015625,0.260009765625,20.3496015625,0.260009765625Z" fill-rule="evenodd" fill="#FFFFFF" fill-opacity="1"/></g><g><path d="M14.303515625,0.2770020751953125C14.303515625,0.2770020751953125,10.257515625,10.614002075195312,10.257515625,10.614002075195312C10.257515625,10.614002075195312,9.825515625000001,9.054002075195312,9.825515625000001,9.054002075195312C9.027515625,7.1730020751953125,6.762515625,4.472002075195313,4.103515625,2.7700020751953125C4.103515625,2.7700020751953125,7.802515625,15.411002075195313,7.802515625,15.411002075195313C7.802515625,15.411002075195313,12.173515625,15.403002075195312,12.173515625,15.403002075195312C12.173515625,15.403002075195312,18.679515625,0.2740020751953125,18.679515625,0.2740020751953125C18.679515625,0.2740020751953125,14.303515625,0.2770020751953125,14.303515625,0.2770020751953125Z" fill-rule="evenodd" fill="#FFFFFF" fill-opacity="1"/></g><g><path d="M8.258,1.361859375C8.018,0.438859375,7.322,0.163859375,6.458,0.130859375C6.458,0.130859375,0.053,0.130859375,0.053,0.130859375C0.053,0.130859375,0,0.431859375,0,0.431859375C4.984,1.640859375,8.282,4.554859375,9.651,8.057859375C9.651,8.057859375,8.258,1.361859375,8.258,1.361859375Z" fill-rule="evenodd" fill="#FFFFFF" fill-opacity="1"/></g><g><path d="M32.8563984375,3.166C34.207398437500004,3.145,35.1873984375,3.44,35.9483984375,3.746C35.9483984375,3.746,36.3213984375,3.922,36.3213984375,3.922C36.3213984375,3.922,36.8803984375,0.636,36.8803984375,0.636C36.0613984375,0.329,34.7793984375,0,33.1793984375,0C29.0973984375,0,26.220398437500002,2.056,26.1973984375,5.002C26.1713984375,7.179,28.2473984375,8.395,29.8153984375,9.12C31.4253984375,9.864,31.9643984375,10.337,31.9573984375,11.001C31.9443984375,12.016,30.6743984375,12.481,29.487398437499998,12.481C27.8323984375,12.481,26.9543984375,12.253,25.5973984375,11.688C25.5973984375,11.688,25.0653984375,11.445,25.0653984375,11.445C25.0653984375,11.445,24.4833984375,14.838,24.4833984375,14.838C25.4503984375,15.262,27.2343984375,15.626,29.0863984375,15.645C33.4293984375,15.645,36.2513984375,13.614,36.2803984375,10.466C36.2983984375,8.743,35.1973984375,7.429,32.8093984375,6.351C31.3643984375,5.647,30.4803984375,5.18,30.4893984375,4.47C30.4893984375,3.84,31.2393984375,3.166,32.8563984375,3.166Z" fill-rule="evenodd" fill="#FFFFFF" fill-opacity="1"/></g><g><path d="M47.48119731445313,0.2767486568515625L44.289237314453125,0.2767486568515625C43.298237314453125,0.2767486568515625,42.56123731445312,0.5467487978515625,42.12523731445312,1.5347527978515625L35.99124145545313,15.425792797851562L40.329237314453124,15.425792797851562C40.329237314453124,15.425792797851562,41.03723731445312,13.558792797851563,41.197237314453126,13.149792797851562C41.42123731445312,13.149792797851562,42.47323731445312,13.150792797851562,43.58723731445313,13.151792797851563C44.84023731445313,13.153792797851562,46.17019731445313,13.155792797851563,46.488197314453124,13.155792797851563C46.61119731445312,13.684792797851562,46.991197314453125,15.425792797851562,46.991197314453125,15.425792797851562L50.82419731445312,15.425792797851562L47.48119731445313,0.2767486568515625ZM42.38577731445312,10.046902797851562C42.725777314453126,9.176902797851563,44.03177731445312,5.810902797851562,44.03177731445312,5.810902797851562C44.02207731445313,5.829412797851562,44.08925731445312,5.653792797851563,44.185417314453126,5.402412797851563C44.19838731445313,5.368522797851562,44.211877314453126,5.333262797851562,44.225777314453126,5.296902797851563C44.338777314453125,5.004902797851562,44.47777731445312,4.642902797851563,44.582777314453125,4.363902797851562L44.860777314453124,5.6709027978515625L45.817777314453124,10.046902797851562L42.38577731445312,10.046902797851562Z" fill-rule="evenodd" fill="#FFFFFF" fill-opacity="1"/></g></g></svg>